<?xml version="1.0" encoding="UTF-8"?>
<svg xmlns="http://www.w3.org/2000/svg" xmlns:xlink="http://www.w3.org/1999/xlink" width="50pt" height="50pt" viewBox="0 0 50 50" version="1.1">
<g id="surface1">
<path style=" stroke:none;fill-rule:nonzero;fill:rgb(100%,56.862745%,44.313725%);fill-opacity:1;" d="M 39.257812 49.023438 L 8.789062 49.023438 C 6.632812 49.023438 4.882812 47.273438 4.882812 45.117188 L 4.882812 4.882812 C 4.882812 2.726562 6.632812 0.976562 8.789062 0.976562 L 39.257812 0.976562 C 41.414062 0.976562 43.164062 2.726562 43.164062 4.882812 L 43.164062 45.117188 C 43.164062 47.273438 41.414062 49.023438 39.257812 49.023438 Z M 39.257812 49.023438 "/>
<path style=" stroke:none;fill-rule:nonzero;fill:rgb(83.529412%,91.764706%,47.45098%);fill-opacity:1;" d="M 47.070312 0.976562 L 39.257812 0.976562 C 41.414062 0.976562 43.164062 2.726562 43.164062 4.882812 L 43.164062 10.585938 L 47.070312 10.585938 C 48.148438 10.585938 49.023438 9.710938 49.023438 8.632812 L 49.023438 2.929688 C 49.023438 1.851562 48.148438 0.976562 47.070312 0.976562 Z M 47.070312 0.976562 "/>
<path style=" stroke:none;fill-rule:nonzero;fill:rgb(40%,87.45098%,96.470588%);fill-opacity:1;" d="M 43.164062 10.585938 L 47.070312 10.585938 C 48.148438 10.585938 49.023438 11.460938 49.023438 12.539062 L 49.023438 18.242188 C 49.023438 19.320312 48.148438 20.195312 47.070312 20.195312 L 43.164062 20.195312 Z M 43.164062 10.585938 "/>
<path style=" stroke:none;fill-rule:nonzero;fill:rgb(75.686275%,57.647059%,86.27451%);fill-opacity:1;" d="M 43.164062 20.195312 L 47.070312 20.195312 C 48.148438 20.195312 49.023438 21.070312 49.023438 22.148438 L 49.023438 27.851562 C 49.023438 28.929688 48.148438 29.804688 47.070312 29.804688 L 43.164062 29.804688 Z M 43.164062 20.195312 "/>
<path style=" stroke:none;fill-rule:nonzero;fill:rgb(100%,49.019608%,59.215686%);fill-opacity:1;" d="M 43.164062 29.804688 L 47.070312 29.804688 C 48.148438 29.804688 49.023438 30.679688 49.023438 31.757812 L 49.023438 37.460938 C 49.023438 38.539062 48.148438 39.414062 47.070312 39.414062 L 43.164062 39.414062 Z M 43.164062 29.804688 "/>
<path style=" stroke:none;fill-rule:nonzero;fill:rgb(100%,80.392157%,41.176471%);fill-opacity:1;" d="M 47.070312 39.414062 L 43.164062 39.414062 L 43.164062 45.117188 C 43.164062 47.273438 41.414062 49.023438 39.257812 49.023438 L 47.070312 49.023438 C 48.148438 49.023438 49.023438 48.148438 49.023438 47.070312 L 49.023438 41.367188 C 49.023438 40.289062 48.148438 39.414062 47.070312 39.414062 Z M 47.070312 39.414062 "/>
<path style=" stroke:none;fill-rule:nonzero;fill:rgb(88.627451%,91.372549%,93.333333%);fill-opacity:1;" d="M 7.421875 11.328125 L 3.125 11.328125 C 1.9375 11.328125 0.976562 10.367188 0.976562 9.179688 C 0.976562 7.992188 1.9375 7.03125 3.125 7.03125 L 7.421875 7.03125 C 8.609375 7.03125 9.570312 7.992188 9.570312 9.179688 C 9.570312 10.367188 8.609375 11.328125 7.421875 11.328125 Z M 7.421875 11.328125 "/>
<path style=" stroke:none;fill-rule:nonzero;fill:rgb(88.627451%,91.372549%,93.333333%);fill-opacity:1;" d="M 7.421875 21.875 L 3.125 21.875 C 1.9375 21.875 0.976562 20.914062 0.976562 19.726562 C 0.976562 18.539062 1.9375 17.578125 3.125 17.578125 L 7.421875 17.578125 C 8.609375 17.578125 9.570312 18.539062 9.570312 19.726562 C 9.570312 20.914062 8.609375 21.875 7.421875 21.875 Z M 7.421875 21.875 "/>
<path style=" stroke:none;fill-rule:nonzero;fill:rgb(88.627451%,91.372549%,93.333333%);fill-opacity:1;" d="M 7.421875 32.421875 L 3.125 32.421875 C 1.9375 32.421875 0.976562 31.460938 0.976562 30.273438 C 0.976562 29.085938 1.9375 28.125 3.125 28.125 L 7.421875 28.125 C 8.609375 28.125 9.570312 29.085938 9.570312 30.273438 C 9.570312 31.460938 8.609375 32.421875 7.421875 32.421875 Z M 7.421875 32.421875 "/>
<path style=" stroke:none;fill-rule:nonzero;fill:rgb(88.627451%,91.372549%,93.333333%);fill-opacity:1;" d="M 7.421875 42.96875 L 3.125 42.96875 C 1.9375 42.96875 0.976562 42.007812 0.976562 40.820312 C 0.976562 39.632812 1.9375 38.671875 3.125 38.671875 L 7.421875 38.671875 C 8.609375 38.671875 9.570312 39.632812 9.570312 40.820312 C 9.570312 42.007812 8.609375 42.96875 7.421875 42.96875 Z M 7.421875 42.96875 "/>
<path style=" stroke:none;fill-rule:nonzero;fill:rgb(40%,87.45098%,96.470588%);fill-opacity:1;" d="M 26.171875 25 L 23.828125 25 C 19.945312 25 16.796875 28.148438 16.796875 32.03125 L 16.796875 33.59375 L 33.203125 33.59375 L 33.203125 32.03125 C 33.203125 28.148438 30.054688 25 26.171875 25 Z M 26.171875 25 "/>
<path style=" stroke:none;fill-rule:nonzero;fill:rgb(100%,81.568627%,78.039216%);fill-opacity:1;" d="M 25 16.40625 C 22.84375 16.40625 21.09375 18.15625 21.09375 20.3125 L 21.09375 21.09375 C 21.09375 23.25 22.84375 25 25 25 C 27.15625 25 28.90625 23.25 28.90625 21.09375 L 28.90625 20.3125 C 28.90625 18.15625 27.15625 16.40625 25 16.40625 Z M 25 16.40625 "/>
<path style=" stroke:none;fill-rule:nonzero;fill:rgb(0%,0%,0%);fill-opacity:1;" d="M 50 2.929688 C 50 1.3125 48.6875 0 47.070312 0 L 8.789062 0 C 6.097656 0 3.90625 2.191406 3.90625 4.882812 L 3.90625 6.054688 L 3.125 6.054688 C 1.402344 6.054688 0 7.457031 0 9.179688 C 0 10.902344 1.402344 12.304688 3.125 12.304688 L 3.90625 12.304688 L 3.90625 16.601562 L 3.125 16.601562 C 1.402344 16.601562 0 18.003906 0 19.726562 C 0 21.449219 1.402344 22.851562 3.125 22.851562 L 3.90625 22.851562 L 3.90625 27.148438 L 3.125 27.148438 C 1.402344 27.148438 0 28.550781 0 30.273438 C 0 31.996094 1.402344 33.398438 3.125 33.398438 L 3.90625 33.398438 L 3.90625 37.695312 L 3.125 37.695312 C 1.402344 37.695312 0 39.097656 0 40.820312 C 0 42.542969 1.402344 43.945312 3.125 43.945312 L 3.90625 43.945312 L 3.90625 45.117188 C 3.90625 47.808594 6.097656 50 8.789062 50 L 47.070312 50 C 48.6875 50 50 48.6875 50 47.070312 L 50 41.367188 C 50 40.617188 49.714844 39.933594 49.25 39.414062 C 49.714844 38.894531 50 38.210938 50 37.460938 L 50 31.757812 C 50 31.007812 49.714844 30.324219 49.25 29.804688 C 49.714844 29.285156 50 28.601562 50 27.851562 L 50 22.148438 C 50 21.398438 49.714844 20.714844 49.25 20.195312 C 49.714844 19.675781 50 18.992188 50 18.242188 L 50 12.539062 C 50 11.789062 49.714844 11.105469 49.25 10.585938 C 49.714844 10.066406 50 9.382812 50 8.632812 Z M 48.046875 2.929688 L 48.046875 8.632812 C 48.046875 9.171875 47.609375 9.609375 47.070312 9.609375 L 44.140625 9.609375 L 44.140625 4.882812 C 44.140625 3.785156 43.777344 2.769531 43.160156 1.953125 L 47.070312 1.953125 C 47.609375 1.953125 48.046875 2.390625 48.046875 2.929688 Z M 48.046875 12.539062 L 48.046875 18.242188 C 48.046875 18.78125 47.609375 19.21875 47.070312 19.21875 L 44.140625 19.21875 L 44.140625 11.5625 L 47.070312 11.5625 C 47.609375 11.5625 48.046875 12 48.046875 12.539062 Z M 48.046875 22.148438 L 48.046875 27.851562 C 48.046875 28.390625 47.609375 28.828125 47.070312 28.828125 L 44.140625 28.828125 L 44.140625 21.171875 L 47.070312 21.171875 C 47.609375 21.171875 48.046875 21.609375 48.046875 22.148438 Z M 48.046875 31.757812 L 48.046875 37.460938 C 48.046875 38 47.609375 38.4375 47.070312 38.4375 L 44.140625 38.4375 L 44.140625 30.78125 L 47.070312 30.78125 C 47.609375 30.78125 48.046875 31.21875 48.046875 31.757812 Z M 1.953125 9.179688 C 1.953125 8.535156 2.480469 8.007812 3.125 8.007812 L 7.421875 8.007812 C 8.066406 8.007812 8.59375 8.535156 8.59375 9.179688 C 8.59375 9.824219 8.066406 10.351562 7.421875 10.351562 L 3.125 10.351562 C 2.480469 10.351562 1.953125 9.824219 1.953125 9.179688 Z M 1.953125 19.726562 C 1.953125 19.082031 2.480469 18.554688 3.125 18.554688 L 7.421875 18.554688 C 8.066406 18.554688 8.59375 19.082031 8.59375 19.726562 C 8.59375 20.371094 8.066406 20.898438 7.421875 20.898438 L 3.125 20.898438 C 2.480469 20.898438 1.953125 20.371094 1.953125 19.726562 Z M 1.953125 30.273438 C 1.953125 29.628906 2.480469 29.101562 3.125 29.101562 L 7.421875 29.101562 C 8.066406 29.101562 8.59375 29.628906 8.59375 30.273438 C 8.59375 30.917969 8.066406 31.445312 7.421875 31.445312 L 3.125 31.445312 C 2.480469 31.445312 1.953125 30.917969 1.953125 30.273438 Z M 1.953125 40.820312 C 1.953125 40.175781 2.480469 39.648438 3.125 39.648438 L 7.421875 39.648438 C 8.066406 39.648438 8.59375 40.175781 8.59375 40.820312 C 8.59375 41.464844 8.066406 41.992188 7.421875 41.992188 L 3.125 41.992188 C 2.480469 41.992188 1.953125 41.464844 1.953125 40.820312 Z M 8.789062 48.046875 C 7.171875 48.046875 5.859375 46.734375 5.859375 45.117188 L 5.859375 43.945312 L 7.421875 43.945312 C 9.144531 43.945312 10.546875 42.542969 10.546875 40.820312 C 10.546875 39.097656 9.144531 37.695312 7.421875 37.695312 L 5.859375 37.695312 L 5.859375 33.398438 L 7.421875 33.398438 C 9.144531 33.398438 10.546875 31.996094 10.546875 30.273438 C 10.546875 28.550781 9.144531 27.148438 7.421875 27.148438 L 5.859375 27.148438 L 5.859375 22.851562 L 7.421875 22.851562 C 9.144531 22.851562 10.546875 21.449219 10.546875 19.726562 C 10.546875 18.003906 9.144531 16.601562 7.421875 16.601562 L 5.859375 16.601562 L 5.859375 12.304688 L 7.421875 12.304688 C 9.144531 12.304688 10.546875 10.902344 10.546875 9.179688 C 10.546875 7.457031 9.144531 6.054688 7.421875 6.054688 L 5.859375 6.054688 L 5.859375 4.882812 C 5.859375 3.265625 7.171875 1.953125 8.789062 1.953125 L 39.257812 1.953125 C 40.875 1.953125 42.1875 3.265625 42.1875 4.882812 L 42.1875 45.117188 C 42.1875 46.734375 40.875 48.046875 39.257812 48.046875 Z M 48.046875 47.070312 C 48.046875 47.609375 47.609375 48.046875 47.070312 48.046875 L 43.160156 48.046875 C 43.777344 47.230469 44.140625 46.214844 44.140625 45.117188 L 44.140625 40.390625 L 47.070312 40.390625 C 47.609375 40.390625 48.046875 40.828125 48.046875 41.367188 Z M 48.046875 47.070312 "/>
<path style=" stroke:none;fill-rule:nonzero;fill:rgb(0%,0%,0%);fill-opacity:1;" d="M 28.589844 24.398438 C 29.390625 23.527344 29.882812 22.367188 29.882812 21.09375 L 29.882812 20.3125 C 29.882812 17.621094 27.691406 15.429688 25 15.429688 C 22.308594 15.429688 20.117188 17.621094 20.117188 20.3125 L 20.117188 21.09375 C 20.117188 22.367188 20.609375 23.527344 21.410156 24.398438 C 18.171875 25.425781 15.820312 28.457031 15.820312 32.03125 L 15.820312 33.59375 C 15.820312 34.132812 16.257812 34.570312 16.796875 34.570312 L 20.617188 34.570312 C 21.15625 34.570312 21.59375 34.132812 21.59375 33.59375 C 21.59375 33.054688 21.15625 32.617188 20.617188 32.617188 L 17.773438 32.617188 L 17.773438 32.03125 C 17.773438 28.691406 20.488281 25.976562 23.828125 25.976562 L 24.023438 25.976562 L 24.023438 27.554688 C 24.023438 28.09375 24.460938 28.53125 25 28.53125 C 25.539062 28.53125 25.976562 28.09375 25.976562 27.554688 L 25.976562 25.976562 L 26.171875 25.976562 C 29.511719 25.976562 32.226562 28.691406 32.226562 32.03125 L 32.226562 32.617188 L 29.40625 32.617188 C 28.867188 32.617188 28.429688 33.054688 28.429688 33.59375 C 28.429688 34.132812 28.867188 34.570312 29.40625 34.570312 L 33.203125 34.570312 C 33.742188 34.570312 34.179688 34.132812 34.179688 33.59375 L 34.179688 32.03125 C 34.179688 28.457031 31.828125 25.425781 28.589844 24.398438 Z M 22.070312 20.3125 C 22.070312 18.695312 23.382812 17.382812 25 17.382812 C 26.617188 17.382812 27.929688 18.695312 27.929688 20.3125 L 27.929688 21.09375 C 27.929688 22.710938 26.617188 24.023438 25 24.023438 C 23.382812 24.023438 22.070312 22.710938 22.070312 21.09375 Z M 22.070312 20.3125 "/>
<path style=" stroke:none;fill-rule:nonzero;fill:rgb(0%,0%,0%);fill-opacity:1;" d="M 25.011719 32.617188 C 24.757812 32.617188 24.503906 32.722656 24.320312 32.902344 C 24.140625 33.085938 24.035156 33.335938 24.035156 33.59375 C 24.035156 33.851562 24.140625 34.101562 24.320312 34.285156 C 24.503906 34.464844 24.757812 34.570312 25.011719 34.570312 C 25.269531 34.570312 25.519531 34.464844 25.703125 34.285156 C 25.882812 34.101562 25.988281 33.851562 25.988281 33.59375 C 25.988281 33.335938 25.886719 33.085938 25.703125 32.902344 C 25.519531 32.722656 25.269531 32.617188 25.011719 32.617188 Z M 25.011719 32.617188 "/>
</g>
</svg>
