<?xml version="1.0" encoding="UTF-8"?>
<svg xmlns="http://www.w3.org/2000/svg" xmlns:xlink="http://www.w3.org/1999/xlink" width="50pt" height="23pt" viewBox="0 0 50 23" version="1.1">
<g id="surface1">
<path style=" stroke:none;fill-rule:nonzero;fill:rgb(100%,100%,100%);fill-opacity:1;" d="M 7.320312 0 L 42.691406 0 C 46.734375 0 50.011719 3.265625 50.011719 7.292969 L 50.011719 15.683594 C 50.011719 19.710938 46.734375 22.976562 42.691406 22.976562 L 7.320312 22.976562 C 3.277344 22.976562 0 19.710938 0 15.683594 L 0 7.292969 C 0 3.265625 3.277344 0 7.320312 0 Z M 7.320312 0 "/>
<path style=" stroke:none;fill-rule:nonzero;fill:rgb(85.098039%,0%,74.117647%);fill-opacity:1;" d="M 9.558594 5.097656 C 8.21875 5.097656 7.6875 5.269531 7.550781 5.511719 C 6.007812 8.277344 6.074219 13.183594 5.960938 17.84375 C 5.953125 18.148438 6.046875 18.421875 6.21875 18.660156 C 6.390625 18.894531 6.621094 19.015625 6.914062 19.015625 L 13.042969 19.015625 C 13.28125 19.015625 13.453125 18.699219 13.558594 18.0625 C 13.566406 18 13.574219 17.941406 13.578125 17.878906 C 13.558594 17.859375 13.542969 17.84375 13.523438 17.824219 C 12.941406 17.21875 12.507812 16.292969 12.214844 15.226562 L 9.996094 15.226562 C 10.015625 11.890625 11.867188 6.0625 11.589844 5.511719 C 11.464844 5.265625 10.914062 5.097656 9.558594 5.097656 Z M 9.558594 5.097656 "/>
<path style=" stroke:none;fill-rule:nonzero;fill:rgb(1.568627%,72.54902%,20.392157%);fill-opacity:1;" d="M 18.242188 3.335938 C 16.777344 3.328125 15.253906 3.894531 13.917969 5.070312 C 12.738281 6.273438 12.148438 8.996094 12.148438 11.335938 C 12.148438 13.660156 12.730469 16.171875 13.898438 17.390625 C 16.152344 19.644531 19.609375 19.820312 22.183594 17.46875 C 22.46875 17.179688 22.722656 16.8125 22.941406 16.382812 C 22.265625 14.964844 21.925781 12.929688 21.925781 11.105469 C 21.925781 9.5625 22.253906 7.515625 22.90625 6.050781 C 22.707031 5.652344 22.480469 5.3125 22.222656 5.050781 C 21.113281 3.929688 19.707031 3.34375 18.242188 3.335938 Z M 18.109375 7.121094 C 18.488281 7.117188 18.863281 7.359375 19.21875 7.925781 C 19.65625 8.492188 19.875 10.257812 19.875 11.316406 C 19.875 12.371094 19.660156 13.925781 19.238281 14.496094 C 18.445312 15.597656 17.964844 15.671875 16.84375 14.515625 C 16.433594 13.945312 16.226562 12.398438 16.226562 11.355469 C 16.226562 10.296875 16.4375 8.527344 16.863281 7.945312 C 17.253906 7.441406 17.683594 7.125 18.109375 7.121094 Z M 18.109375 7.121094 "/>
<path style=" stroke:none;fill-rule:nonzero;fill:rgb(0%,50.588235%,100%);fill-opacity:1;" d="M 28.589844 2.828125 C 27.066406 2.84375 25.625 3.394531 24.1875 4.734375 C 23.03125 6.015625 22.453125 8.953125 22.453125 11 C 22.453125 13.40625 23.046875 16.183594 24.226562 17.425781 C 25.753906 19.003906 28.398438 19.625 30.777344 19.03125 C 31.585938 18.84375 32.125 18.660156 32.386719 18.476562 L 32.402344 17.308594 C 31.234375 15.6875 30.765625 13.671875 31.015625 11.800781 L 30.9375 11.792969 C 30.683594 11.792969 30.367188 11.828125 29.980469 11.894531 C 29.597656 11.945312 29.40625 12.0625 29.40625 12.25 L 29.363281 14.945312 C 29.371094 15.980469 27.792969 15.277344 27.367188 14.609375 C 26.851562 14.027344 26.59375 12.230469 26.59375 11.121094 C 26.59375 10.007812 26.84375 7.921875 27.347656 7.390625 C 27.976562 6.75 28.640625 6.390625 29.582031 6.777344 C 29.953125 6.882812 30.199219 6.988281 30.320312 7.09375 C 30.453125 7.1875 30.570312 7.234375 30.679688 7.234375 C 30.796875 7.234375 30.984375 7.101562 31.234375 6.835938 C 31.488281 6.574219 31.710938 6.175781 31.910156 5.648438 C 32.109375 5.105469 32.210938 4.6875 32.210938 4.398438 C 32.210938 4.105469 32.203125 3.910156 32.191406 3.804688 C 31.910156 3.5 31.394531 3.261719 30.636719 3.089844 C 29.988281 2.925781 29.355469 2.835938 28.738281 2.828125 C 28.6875 2.828125 28.636719 2.828125 28.589844 2.828125 Z M 35.730469 12.125 C 35.597656 12.925781 35.789062 13.691406 36.320312 14.421875 C 36.386719 14.511719 36.457031 14.59375 36.527344 14.667969 L 36.480469 12.269531 C 36.480469 12.21875 36.179688 12.167969 35.730469 12.125 Z M 35.730469 12.125 "/>
<path style=" stroke:none;fill-rule:nonzero;fill:rgb(100%,53.333333%,0%);fill-opacity:1;" d="M 37.691406 19.214844 C 35.835938 19.214844 34.316406 18.605469 33.136719 17.390625 C 30.804688 14.578125 30.761719 10.320312 33.15625 7.820312 C 34.351562 6.617188 35.882812 6.015625 37.75 6.015625 C 39.632812 6.015625 41.152344 6.609375 42.308594 7.800781 C 44.597656 10.675781 44.683594 15.011719 42.265625 17.46875 C 41.085938 18.632812 39.5625 19.214844 37.691406 19.214844 Z M 37.710938 9.820312 C 37.074219 9.820312 36.539062 10.113281 36.101562 10.695312 C 35.253906 12.066406 35.222656 13.335938 36.082031 14.515625 C 36.492188 15.070312 37.027344 15.347656 37.691406 15.347656 C 38.367188 15.347656 38.910156 15.0625 39.324219 14.496094 C 40.203125 13.28125 40.175781 11.816406 39.304688 10.675781 C 38.878906 10.105469 38.347656 9.820312 37.710938 9.820312 Z M 37.710938 9.820312 "/>
</g>
</svg>
